<?xml version="1.0" standalone="no"?>
<!DOCTYPE svg PUBLIC "-//W3C//DTD SVG 20010904//EN"
 "http://www.w3.org/TR/2001/REC-SVG-20010904/DTD/svg10.dtd">
<svg version="1.0" xmlns="http://www.w3.org/2000/svg"
 width="288.000000pt" height="288.000000pt" viewBox="0 0 288.000000 288.000000"
 preserveAspectRatio="xMidYMid meet">

<g transform="translate(0.000000,288.000000) scale(0.100000,-0.100000)"
fill="#000000" stroke="none">
<path d="M0 1440 l0 -1440 1440 0 1440 0 0 1440 0 1440 -1440 0 -1440 0 0
-1440z m330 410 l0 -90 105 0 105 0 0 90 0 90 60 0 60 0 0 -235 0 -235 -60 0
-59 0 -3 98 -3 97 -100 0 -100 0 -3 -97 -3 -98 -64 0 -65 0 0 235 0 235 65 0
65 0 0 -90z m1570 4 l0 -44 45 0 c45 0 45 0 45 -35 0 -35 0 -35 -45 -35 l-45
0 0 -85 c0 -91 3 -96 53 -99 15 -1 24 -11 31 -34 13 -45 -3 -54 -80 -49 -109
8 -134 43 -134 190 0 75 0 77 -25 77 -22 0 -25 4 -25 35 0 31 3 35 25 35 22 0
25 4 25 39 l0 39 58 9 c31 5 60 8 65 6 4 -3 7 -24 7 -49z m-1010 -147 c0 -124
11 -147 70 -147 59 0 70 23 70 147 l0 103 60 0 60 0 0 -170 0 -170 -50 0 c-42
0 -50 3 -50 18 0 30 -11 33 -44 9 -25 -17 -45 -22 -97 -22 -113 0 -139 41
-139 220 l0 115 60 0 60 0 0 -103z m474 78 l6 -25 30 22 c40 29 134 37 179 14
59 -31 71 -65 71 -203 l0 -123 -60 0 -60 0 0 104 c0 89 -3 107 -21 130 -26 33
-73 35 -106 4 -21 -20 -23 -30 -23 -130 l0 -108 -60 0 -60 0 0 154 c0 85 -3
161 -6 170 -5 13 3 16 49 16 50 0 55 -2 61 -25z m984 -2 c45 -34 63 -67 65
-119 l2 -49 -133 -5 c-124 -5 -132 -6 -120 -22 28 -37 106 -52 185 -34 29 7
32 5 38 -24 11 -49 -3 -55 -123 -55 -95 0 -111 3 -144 23 -59 37 -83 77 -83
143 0 46 5 63 29 94 43 56 95 77 184 72 53 -3 81 -10 100 -24z m252 -3 c0 -37
5 -37 33 -4 15 17 36 27 65 31 l42 6 0 -45 0 -45 -42 -7 c-71 -12 -78 -24 -78
-143 l0 -104 -60 3 -60 3 -3 168 -2 167 53 0 c51 0 52 0 52 -30z"/>
<path d="M2169 1719 c-30 -30 -13 -41 61 -37 67 3 82 15 55 42 -24 24 -90 21
-116 -5z"/>
</g>
</svg>
